PathFileType	4	(X/Y/Z)
DataRate	CameraRate	NumFrames	NumMarkers	Units	OrigDataRate	OrigDataStartFrame	OrigNumFrames	
	120.0	120.0	6	39	mm	120.0	1	206
Frame#	Time	midhip	hip_r	hip_l	knee_r	knee_l	ankle_r	ankle_l	midasis	asis_r	asis_l	psis_r	psis_l	epicondLat_r	epicondLat_l	epicondMed_r	epicondMed_l	malleolusLat_r	malleolusLat_l	malleolusMedv_r	malleolusMedv_l	heel_r	heel_l	sternalnotch	xyphoidprocess	neck	subclavicle_r	subclavicle_l	toe_r	toe_l	thighwand_r	thighwand_l	upperleg1_r	upperleg1_l	upperleg2_r	upperleg2_l	shankwand_r	shankwand_l	lowerleg1_r	lowerleg1_l
	X1	Y1	Z1	X2	Y2	Z2	X3	Y3	Z3	X4	Y4	Z4	X5	Y5	Z5	X6	Y6	Z6	X7	Y7	Z7	X8	Y8	Z8	X9	Y9	Z9	X10	Y10	Z10	X11	Y11	Z11	X12	Y12	Z12	X13	Y13	Z13	X14	Y14	Z14	X15	Y15	Z15	X16	Y16	Z16	X17	Y17	Z17	X18	Y18	Z18	X19	Y19	Z19	X20	Y20	Z20	X21	Y21	Z21	X22	Y22	Z22	X23	Y23	Z23	X24	Y24	Z24	X25	Y25	Z25	X26	Y26	Z26	X27	Y27	Z27	X28	Y28	Z28	X29	Y29	Z29	X30	Y30	Z30	X31	Y31	Z31	X32	Y32	Z32	X33	Y33	Z33	X34	Y34	Z34	X35	Y35	Z35	X36	Y36	Z36	X37	Y37	Z37	X38	Y38	Z38	X39	Y39	Z39

	1	0.00833	1431.062	820.020	-269.151	1429.052	809.973	-195.639	1421.542	813.623	-347.538	1432.224	436.312	-160.113	1430.267	437.545	-388.465	1414.851	64.829	-126.300	1397.496	67.532	-423.198	1522.148	879.920	-271.629	1524.102	877.213	-153.493	1520.194	882.627	-389.766	1329.730	951.239	-233.917	1326.304	949.044	-288.005	1435.233	442.009	-100.460	1435.206	444.127	-447.898	1431.899	435.390	-215.339	1432.197	440.643	-324.340	1395.697	69.104	-89.167	1382.954	72.490	-462.287	1430.004	67.804	-156.336	1404.037	75.404	-394.640	1376.089	33.713	-157.616	1346.848	47.308	-411.981	1520.396	1320.690	-267.399	1563.113	1252.996	-270.995	1399.428	1380.658	-258.499	1526.423	1325.947	-215.466	1521.092	1322.214	-320.984	1508.546	40.681	-67.466	1500.843	44.000	-457.484	1590.332	574.414	-186.194	1467.731	581.552	-520.658	1524.881	631.165	-135.778	1408.853	627.191	-456.111	1511.855	544.483	-127.426	1413.864	539.331	-451.470	1383.041	151.717	-29.495	1495.087	186.915	-406.525	1391.062	157.266	-72.205	1453.126	188.591	-412.882
	2	0.01667	1431.156	820.032	-269.140	1428.933	809.972	-195.638	1421.452	813.584	-347.539	1432.226	436.309	-160.127	1430.222	437.532	-388.498	1414.850	64.850	-126.310	1397.488	67.545	-423.171	1522.060	879.877	-271.629	1523.991	877.200	-153.499	1520.129	882.553	-389.759	1329.753	951.205	-233.929	1326.349	949.011	-288.039	1435.213	442.005	-100.472	1435.177	444.121	-447.929	1432.011	434.932	-214.880	1432.229	440.661	-324.338	1395.683	69.126	-89.184	1382.953	72.495	-462.264	1429.896	67.671	-156.398	1403.925	75.482	-394.584	1376.102	33.726	-157.592	1346.813	47.338	-411.953	1520.420	1320.893	-267.557	1563.250	1253.262	-270.991	1399.428	1380.658	-258.499	1526.575	1326.371	-215.753	1520.973	1322.201	-321.058	1508.571	40.686	-67.441	1500.831	44.042	-457.504	1590.321	574.378	-186.230	1467.624	581.580	-520.691	1524.855	631.111	-136.182	1408.735	627.219	-456.092	1511.855	544.483	-127.426	1413.791	539.329	-451.455	1383.045	151.632	-29.468	1495.054	186.878	-406.483	1391.043	157.328	-72.433	1453.203	188.576	-412.907
	3	0.02500	1431.070	819.919	-269.169	1428.810	809.958	-195.652	1421.365	813.575	-347.555	1432.214	436.300	-160.135	1430.172	437.538	-388.527	1414.844	64.873	-126.322	1397.488	67.563	-423.151	1521.969	879.845	-271.620	1523.872	877.166	-153.508	1520.067	882.524	-389.732	1329.768	951.166	-233.940	1326.379	948.993	-288.062	1435.179	441.998	-100.480	1435.131	444.130	-447.957	1432.344	434.532	-214.695	1432.235	440.672	-324.352	1395.663	69.149	-89.203	1382.956	72.506	-462.245	1430.061	67.444	-156.334	1403.692	75.704	-394.493	1376.093	33.719	-157.572	1346.856	47.328	-411.964	1520.369	1321.014	-267.637	1563.233	1253.409	-271.133	1399.447	1380.657	-258.476	1526.672	1326.545	-215.907	1520.763	1322.273	-321.091	1508.574	40.713	-67.423	1500.839	44.050	-457.517	1590.353	574.413	-186.175	1467.547	581.596	-520.716	1524.672	630.911	-136.133	1408.558	627.271	-456.075	1511.916	544.448	-127.328	1413.710	539.303	-451.450	1383.041	151.579	-29.427	1494.984	186.917	-406.432	1391.216	157.241	-72.607	1453.151	188.707	-412.991
	4	0.03333	1431.032	819.859	-269.242	1428.701	809.938	-195.697	1421.297	813.613	-347.599	1432.189	436.288	-160.142	1430.121	437.566	-388.544	1414.845	64.894	-126.331	1397.504	67.575	-423.135	1521.887	879.844	-271.613	1523.758	877.121	-153.525	1520.016	882.567	-389.702	1329.777	951.123	-233.948	1326.406	948.997	-288.054	1435.133	441.992	-100.487	1435.078	444.154	-447.975	1432.556	434.531	-214.984	1432.220	440.692	-324.342	1395.651	69.169	-89.219	1382.970	72.511	-462.230	1430.199	67.403	-156.289	1403.556	75.634	-394.505	1376.062	33.692	-157.539	1347.049	47.220	-412.022	1520.312	1321.016	-267.569	1563.151	1253.401	-271.197	1399.418	1380.673	-258.447	1526.650	1326.465	-215.808	1520.673	1322.358	-321.049	1508.542	40.737	-67.419	1500.864	44.017	-457.518	1590.442	574.528	-186.014	1467.508	581.588	-520.727	1524.557	630.604	-135.691	1408.498	627.296	-456.077	1511.977	544.413	-127.230	1413.671	539.296	-451.445	1383.021	151.579	-29.385	1494.913	186.960	-406.401	1391.309	157.106	-72.575	1453.214	188.388	-413.136
	5	0.04167	1431.095	819.898	-269.371	1428.600	809.923	-195.775	1421.247	813.697	-347.678	1432.158	436.279	-160.155	1430.073	437.619	-388.548	1414.849	64.910	-126.333	1397.547	67.584	-423.116	1521.808	879.885	-271.615	1523.638	877.085	-153.549	1519.977	882.684	-389.681	1329.780	951.077	-233.950	1326.417	949.015	-288.022	1435.081	441.994	-100.500	1435.026	444.194	-447.981	1432.342	435.163	-216.039	1432.051	440.754	-324.286	1395.642	69.185	-89.227	1383.011	72.514	-462.211	1429.876	67.699	-156.459	1403.674	75.130	-394.659	1376.018	33.651	-157.500	1347.341	47.054	-412.104	1520.212	1320.973	-267.465	1563.007	1253.335	-271.172	1399.333	1380.700	-258.455	1526.501	1326.324	-215.583	1520.629	1322.411	-321.045	1508.485	40.741	-67.435	1500.893	43.960	-457.508	1590.570	574.706	-185.781	1467.512	581.564	-520.709	1524.702	630.522	-135.456	1408.416	627.342	-456.094	1511.804	544.369	-127.460	1413.598	539.294	-451.430	1382.999	151.626	-29.362	1494.869	186.968	-406.396	1391.027	157.117	-72.395	1453.447	187.523	-413.263
	6	0.05000	1430.882	819.736	-269.516	1428.512	809.913	-195.867	1421.216	813.809	-347.770	1432.123	436.273	-160.166	1430.029	437.688	-388.538	1414.849	64.919	-126.330	1397.593	67.602	-423.108	1521.733	879.957	-271.614	1523.519	877.062	-153.573	1519.947	882.852	-389.656	1329.779	951.033	-233.943	1326.402	949.036	-287.991	1435.033	442.001	-100.511	1434.982	444.246	-447.973	1432.211	435.685	-217.187	1431.692	440.867	-324.181	1395.634	69.193	-89.228	1383.058	72.527	-462.204	1429.663	67.883	-156.560	1403.256	75.421	-394.568	1375.984	33.616	-157.474	1347.737	46.792	-412.204	1520.115	1321.027	-267.356	1562.896	1253.389	-271.223	1399.256	1380.744	-258.472	1526.334	1326.208	-215.432	1520.607	1322.639	-320.946	1508.433	40.725	-67.471	1500.919	43.894	-457.491	1590.716	574.945	-185.513	1467.550	581.543	-520.670	1524.839	630.586	-135.537	1408.259	627.447	-456.111	1511.520	544.248	-127.822	1413.454	539.301	-451.396	1382.990	151.706	-29.361	1494.864	186.942	-406.409	1390.851	157.165	-72.293	1453.574	187.419	-413.595
